<svg width="452.5" height="116.54" xmlns="http://www.w3.org/2000/svg"><path d="M355.1 116.34c-2.8-8.6-5.7-17.2-8.5-25.8-.2-.7-.3-1.4-.3-2.1V.04h50.6c3.9 0 7.5.8 10.9 2.6 15.5 8.4 23.5 22.4 22.4 40-.7 10.4-5.3 18.9-13.3 25.8.3.6.5 1.2.8 1.7 3.1 6.1 6.2 12.2 9.2 18.3.3.5.5 1.3.3 1.8-2.8 8.7-5.7 17.4-8.6 26.1H410c-5.8-11.6-11.6-23.3-17.4-34.9-.4-.8-.9-1.1-1.8-1.1h-15c-.4 0-.7.1-1.1.1 0 .4-.1.6-.1.9 0 7.5.1 14.9.1 22.4 0 4.2 0 8.3-.1 12.5-6.5.1-13 .1-19.5.1zm18.8-90.2v24.7c.2.1.3.1.4.1 4.9 0 9.8-.2 14.7.1 6.9.3 12.3-5.4 12.5-12.1.2-6.3-4.5-12.4-10.3-12.7-5.7-.3-11.4-.1-17.3-.1zm-196.1 90.2c-2.5-7.6-5-15.1-7.6-22.6-1-2.7-1.4-5.5-1.3-8.4.1-27.7 0-55.4 0-83V.14h50.5c4 0 7.6.8 11.1 2.7 23.8 12.5 26.7 38.9 18 54.8-2.1 3.8-4.7 7.2-8 9.9-.8.7-.9 1.2-.4 2.2 3.1 6.1 6.2 12.3 9.3 18.4.5 1 .6 1.9.2 3-2.8 8.4-5.6 16.9-8.3 25.4h-8.6c-.3-.6-.7-1.3-1-1.9-5.4-10.8-10.8-21.6-16.2-32.5-.6-1.3-1.4-1.7-2.8-1.7-4.1.1-8.3 0-12.4 0h-3v36c-6.6-.1-13.1-.1-19.5-.1zm18.6-65.4c.6 0 1.1.1 1.5.1h14.2c.8 0 1.7 0 2.5-.2 6.1-1.3 10-7 9.4-13.9-.5-5.9-5.4-10.6-11.4-10.8-4.8-.1-9.7 0-14.5-.1-1.4 0-1.8.4-1.8 1.8.1 7.2 0 14.4 0 21.6 0 .4.1.9.1 1.5zM.1.14h28.3v38.3c.1 0 .2.1.3.1.4-.5.8-1 1.1-1.5 8.7-12 17.3-24 26.1-35.9.4-.6 1.3-1.1 1.9-1.1 10.8-.1 21.7 0 32.5 0 .3 0 .5 0 1 .1-.5.6-.8 1.2-1.2 1.7-13.1 17.2-26.2 34.4-39.5 51.5-1 1.3-1 2.1-.1 3.4 7.1 10.5 14 21 21.1 31.5.6 1 .8 1.8.4 2.9-2.7 8.1-5.3 16.2-8 24.2-.1.3-.2.6-.2.9h-7.3c-.2-.4-.4-.8-.6-1.1-8.9-12.2-17.7-24.5-26.6-36.7-.2-.3-.4-.5-.9-1.1v38.9H0C.1 77.64.1 38.84.1.14zm70.3 116.2c2.8-8.5 5.5-16.9 8.3-25.4l29.4-89.4c.2-.5.3-.9.5-1.5h11.5c3.7 0 7.4.1 11.1 0 1.4 0 1.9.4 2.3 1.7l25.5 77.7c3.8 11.6 7.6 23.3 11.5 34.9.2.7.3 1.4.4 2.1h-29.1c-1.7-5.1-3.3-10.2-5-15.3-.1-.4-1.1-.7-1.7-.7-9.6 0-19.1 0-28.7-.1-1.2 0-1.7.4-2 1.6-1.5 4.9-3.2 9.7-4.8 14.5-9.8-.1-19.5-.1-29.2-.1zm58.4-43.3c-2.7-10.1-5.3-20-7.9-30h-.3c-2.7 10-5.3 19.9-8.1 30zm119 43.3c12.5-38.2 25.1-76.4 37.6-114.6.4-1.3.9-1.7 2.3-1.7 7 .1 14.1.1 21.1 0 1.2 0 1.7.4 2.1 1.5 12.5 38.1 24.9 76.1 37.4 114.2.1.2.2.4.2.6h-29.1c-1.7-4.9-3.3-9.7-4.9-14.6-.3-1.1-.8-1.5-2-1.4h-28.8c-1.1 0-1.6.4-2 1.4-1.6 4.9-3.3 9.8-4.9 14.6zm58.4-43.3c-2.7-10.1-5.3-20.1-7.9-30h-.3c-2.7 10-5.3 19.9-8 30zm119.2 43.3c2.8-8.7 5.5-17.3 8.4-26 .1-.3.7-.8 1-.8h17.7v26.8z" fill="#e30613"/></svg>